<?xml version="1.0" encoding="utf-8"?>
<!-- Generator: Adobe Illustrator 24.2.3, SVG Export Plug-In . SVG Version: 6.00 Build 0)  -->
<svg version="1.1" id="Livello_1" xmlns="http://www.w3.org/2000/svg" xmlns:xlink="http://www.w3.org/1999/xlink" x="0px" y="0px"
	 viewBox="0 0 456 229" style="enable-background:new 0 0 456 229;" xml:space="preserve">
<style type="text/css">
	.st0{fill:#231F20;}
</style>
<g>
	<path class="st0" d="M341.8,9.6H113.7C55.2,9.6,7.5,57.2,7.5,115.7s47.6,106.2,106.2,106.2h228.1c58.5,0,106.2-47.6,106.2-106.2
		S400.4,9.6,341.8,9.6z M341.8,201.9H113.7c-47.5,0-86.2-38.7-86.2-86.2s38.7-86.2,86.2-86.2h228.1c47.5,0,86.2,38.7,86.2,86.2
		S389.4,201.9,341.8,201.9z"/>
	<path class="st0" d="M110.3,62.6c-3.7,0-6.6,1.1-9,3.2c-2.3,2.2-3.5,4.9-3.5,8.1c0,3.2,1.2,5.8,3.5,8c2.3,2.2,5.3,3.2,9,3.2
		c3.6,0,6.5-1.1,8.8-3.2c2.3-2.1,3.5-4.8,3.5-8c0-3.2-1.2-5.9-3.5-8.1C116.9,63.6,113.9,62.6,110.3,62.6z"/>
	<path class="st0" d="M161.4,141.2c-1-0.9-1.5-2.4-1.5-4.4v-27.3h13.7V92.2h-13.7V75.6h-20.8v16.6h-8.3v17.3h8.3v27.1
		c0,8.4,2.1,14.4,6.3,18.1c4.2,3.7,10.1,5.5,17.7,5.5h10.6v-17.7h-7.4C164,142.5,162.4,142.1,161.4,141.2z"/>
	<rect x="99.9" y="92.2" class="st0" width="20.8" height="68"/>
	<rect x="265.1" y="74.6" class="st0" width="20.8" height="85.5"/>
	<polygon class="st0" points="296.4,91.3 319.1,91.3 319.1,160.2 339.9,160.2 339.9,91.3 362.6,91.3 362.6,74.6 296.4,74.6 	"/>
	<rect x="193.2" y="143.3" class="st0" width="53.6" height="17.3"/>
</g>
</svg>
