<?xml version="1.0" encoding="utf-8"?>
<!-- Generator: Adobe Illustrator 24.2.3, SVG Export Plug-In . SVG Version: 6.00 Build 0)  -->
<svg version="1.1" id="Livello_1" xmlns="http://www.w3.org/2000/svg" xmlns:xlink="http://www.w3.org/1999/xlink" x="0px" y="0px"
	 viewBox="0 0 598 76" style="enable-background:new 0 0 598 76;" xml:space="preserve">
<style type="text/css">
	.st0{fill:#FFFFFF;}
</style>
<path class="st0" d="M185.5,15h20.9v55.8h13V15h20.9V3.5h-54.9V15H185.5z M169.3,23l7.5-9.4c-3.3-3.4-7.2-6.1-11.8-8
	s-9.3-2.9-14.1-2.9c-6.6,0-12.6,1.5-18,4.5s-9.7,7.1-12.8,12.4s-4.7,11.1-4.7,17.5s1.5,12.3,4.6,17.5c3.1,5.3,7.3,9.5,12.7,12.5
	c5.4,3.1,11.3,4.6,17.8,4.6c4.8,0,9.5-1,14.2-3.1c4.7-2.1,8.8-4.9,12.3-8.5l-7.6-8.5c-2.5,2.5-5.4,4.5-8.6,5.9
	c-3.2,1.4-6.5,2.1-9.7,2.1c-4.2,0-8-1-11.4-3c-3.5-2-6.2-4.8-8.2-8.3s-3-7.3-3-11.5s1-8,3-11.5s4.7-6.2,8.2-8.2s7.3-3,11.4-3
	c3.3,0,6.6,0.8,9.8,2.3C164.1,18,166.9,20.2,169.3,23 M91.2,70.8h12.9V3.5H91.2V70.8z"/>
<path class="st0" d="M566.6,43.5h-17.9V10h17.9c6.5,0,11.4,1.4,14.9,4.2s5.2,6.9,5.2,12.3c0,5.5-1.7,9.7-5.2,12.6
	C577.9,42.1,573,43.5,566.6,43.5 M566.9,4h-24.8v67.2h6.6V49.5h18.2c8.3,0,14.8-2,19.3-6.1c4.5-4,6.8-9.7,6.8-17.1
	c0-7.1-2.3-12.6-6.8-16.5C581.6,6,575.2,4,566.9,4 M477,43.9v-40h-6.6v40c0,8.7,2.5,15.5,7.4,20.5c4.9,4.9,11.8,7.4,20.5,7.4
	s15.5-2.5,20.4-7.4c4.9-4.9,7.3-11.8,7.3-20.5v-40h-6.6v40c0,6.9-1.9,12.3-5.6,16.1c-3.7,3.8-8.9,5.8-15.6,5.8
	c-6.7,0-11.9-1.9-15.6-5.8C478.9,56.2,477,50.8,477,43.9 M422.3,9.4c5.1,0,9.8,1.2,14.1,3.7c4.3,2.5,7.8,5.9,10.3,10.2
	c2.6,4.3,3.8,9,3.8,14.1s-1.3,9.9-3.8,14.2c-2.6,4.4-6,7.8-10.3,10.3c-4.3,2.5-9,3.8-14.1,3.8s-9.9-1.3-14.2-3.8
	c-4.4-2.5-7.8-6-10.4-10.3c-2.6-4.4-3.8-9.1-3.8-14.2s1.3-9.8,3.8-14.1c2.6-4.3,6-7.7,10.4-10.2C412.5,10.7,417.2,9.4,422.3,9.4
	 M422.2,3.4c-6.4,0-12.3,1.5-17.6,4.6c-5.3,3-9.6,7.2-12.7,12.3c-3.1,5.2-4.7,10.9-4.7,17.1s1.6,12,4.7,17.2
	c3.1,5.3,7.4,9.4,12.7,12.5c5.3,3.1,11.2,4.6,17.6,4.6s12.3-1.5,17.6-4.6c5.3-3.1,9.6-7.2,12.7-12.5s4.7-11,4.7-17.2
	s-1.6-11.9-4.7-17.1S445.1,11,439.8,8C434.5,5,428.6,3.4,422.2,3.4 M330.9,43.5V10h18.4c6.4,0,11.3,1.4,14.8,4.2s5.2,6.9,5.2,12.3
	c0,5.5-1.7,9.7-5.2,12.6c-3.5,2.9-8.4,4.4-14.8,4.4H330.9z M376.2,71.2L360.1,48c5-1.5,8.8-4.1,11.5-7.8s4-8.4,4-13.9
	c0-7.1-2.3-12.6-6.9-16.5S357.6,4,349.2,4h-25.1v67.2h6.6V49.5h18.4c1.1,0,2.7-0.1,4.7-0.2l14.5,21.9H376.2z M302.4,59.7
	c-2.7,1.9-5.6,3.4-8.8,4.5c-3.2,1.1-6.4,1.6-9.6,1.6c-5.2,0-10-1.3-14.4-3.8c-4.4-2.5-7.9-6-10.4-10.3c-2.6-4.3-3.8-9.1-3.8-14.3
	c0-5.1,1.3-9.8,3.8-14.1c2.6-4.3,6-7.7,10.4-10.2s9.1-3.8,14.3-3.8c3.8,0,7.6,0.7,11.1,2.1c3.6,1.4,6.8,3.3,9.5,5.9l3.8-4.7
	c-3.3-2.9-7-5.1-11.3-6.7s-8.7-2.4-13.2-2.4c-6.4,0-12.3,1.5-17.7,4.6c-5.4,3-9.7,7.2-12.8,12.3c-3.1,5.2-4.7,10.9-4.7,17.1
	s1.6,12,4.7,17.2c3.1,5.3,7.4,9.4,12.7,12.5c5.3,3.1,11.2,4.6,17.5,4.6c4.5,0,8.9-0.8,13.2-2.4c4.3-1.6,8.1-3.7,11.4-6.5V38.3h-5.9
	v21.4H302.4z"/>
<path class="st0" d="M51.6,56.5c-2.2,2.1-5.7,2.1-7.9,0s-2.2-5.5,0-7.6c2.2-2.1,5.7-2.1,7.9,0S53.8,54.4,51.6,56.5 M57.5,42.9
	c-2-2-1.9-5.4,0.3-7.5c0.1,0,0.1-0.1,0.2-0.1l0,0l16-16.2V4.2L34.9,42.5l0,0c0,0-0.1,0.1-0.1,0.2c-2.1,2.1-5.5,2.3-7.5,0.3
	s-1.9-5.4,0.3-7.5c0,0,0.1-0.1,0.2-0.1l0,0L60,3.6H27.5c0,0-21.5,0-21.5,21.5v40.2c0,0,0,6.2,6.2,6.2h40.2c0,0,21.6,0,21.6-21.6
	V33.6l-8.8,8.8l0,0c0,0-0.1,0.1-0.1,0.2C62.9,44.8,59.5,44.9,57.5,42.9"/>
</svg>
