<?xml version="1.0" encoding="utf-8"?>
<!-- Generator: Adobe Illustrator 24.2.3, SVG Export Plug-In . SVG Version: 6.00 Build 0)  -->
<svg version="1.1" id="Livello_1" xmlns="http://www.w3.org/2000/svg" xmlns:xlink="http://www.w3.org/1999/xlink" x="0px" y="0px"
	 viewBox="0 0 75 76" style="enable-background:new 0 0 75 76;" xml:space="preserve">
<style type="text/css">
	.st0{fill:#5AC2E1;}
</style>
<path class="st0" d="M50.3,58.3c-2.4,2.3-6.3,2.3-8.7,0c-2.4-2.3-2.4-6.1,0-8.4c2.4-2.3,6.3-2.3,8.7,0S52.7,56,50.3,58.3 M56.8,43.3
	c-2.2-2.2-2.1-6,0.3-8.3c0.1,0,0.1-0.1,0.2-0.1l0,0L75,17.1V0.7L31.9,42.9l0,0c0,0-0.1,0.1-0.1,0.2c-2.3,2.3-6.1,2.5-8.3,0.3
	s-2.1-6,0.3-8.3c0,0,0.1-0.1,0.2-0.1l0,0L59.6,0H23.7H0v68.1V76h75V51.1v-18l-9.7,9.7l0,0c0,0-0.1,0.1-0.1,0.2
	C62.8,45.4,59,45.6,56.8,43.3"/>
</svg>
